<svg width="380.00000762939453" height="1975" viewBox="-90.5999984741211 -62.5 380.00000762939453 1975" xmlns="http://www.w3.org/2000/svg"><style>:root { --primary-bg: #f0f2f5; --container-bg: #ffffff; --panel-bg: #f8f9fa; --header-color: #2c3e50; --text-color: #34495e; --border-color: #dee2e6; --primary-accent: #007bff; --primary-accent-hover: #0056b3; --danger-accent: #dc3545; --success-accent: #28a745; --warning-accent: #ffc107; --cancel-accent: #6c757d; --phase-1: #e3f2fd; --phase-2: #f3e5f5; --phase-3: #e8f5e8; --group-bg: #fff3e0; --subgroup-bg: #fafafa; }
body { font-family: -apple-system, BlinkMacSystemFont, "Segoe UI", Roboto, "Helvetica Neue", Arial, sans-serif; margin: 0px; padding: 20px; background-color: var(--primary-bg); color: var(--text-color); }
.container { max-width: 1800px; margin: 0px auto; background: var(--container-bg); border-radius: 12px; box-shadow: rgba(0, 0, 0, 0.08) 0px 4px 12px; padding: 25px; }
.header { text-align: center; margin-bottom: 25px; }
h1 { color: var(--header-color); margin: 0px 0px 5px; font-size: 2em; }
.header p { color: rgb(108, 117, 125); margin: 0px; }
.workspace { display: flex; gap: 20px; flex-wrap: wrap; }
.data-panel { width: 400px; background: var(--panel-bg); padding: 20px; border-radius: 8px; border: 1px solid var(--border-color); height: fit-content; flex-shrink: 0; max-height: 80vh; overflow-y: auto; }
.data-panel h3 { margin: 0px 0px 15px; color: var(--header-color); border-bottom: 1px solid var(--border-color); padding-bottom: 10px; }
.visualization-panel { flex: 1 1 0%; border: 1px solid var(--border-color); border-radius: 8px; min-height: 70vh; position: relative; cursor: grab; overflow: hidden; }
#matrixSvg { display: block; width: 100%; height: 100%; }
.context-node-group { cursor: move; }
.context-node-group.dragging { opacity: 0.7; cursor: grabbing; }
.context-node { fill: var(--primary-accent); stroke: var(--primary-accent-hover); stroke-width: 2px; cursor: pointer; transition: fill 0.2s, transform 0.2s ease-out; }
.context-node:hover { fill: var(--primary-accent-hover); transform: scale(1.05); }
.context-node.grouped { fill: var(--warning-accent); stroke: rgb(224, 168, 0); }
.context-node.phased { fill: var(--success-accent); stroke: rgb(30, 126, 52); }
.context-node.temporal-conflict { fill: var(--danger-accent); stroke: rgb(200, 35, 51); animation: 2s ease 0s infinite normal none running pulse; }
@keyframes pulse { 
  0% { opacity: 1; }
  50% { opacity: 0.7; }
  100% { opacity: 1; }
}
.group-boundary { fill: var(--group-bg); stroke: rgb(255, 152, 0); stroke-width: 2px; stroke-dasharray: 5, 5; opacity: 0.3; pointer-events: none; }
.subgroup-boundary { fill: var(--subgroup-bg); stroke: rgb(156, 39, 176); stroke-width: 1px; stroke-dasharray: 3, 3; opacity: 0.2; pointer-events: none; }
.phase-boundary { fill: var(--phase-1); stroke: rgb(76, 175, 80); stroke-width: 3px; stroke-dasharray: 10, 5; opacity: 0.4; pointer-events: none; }
.context-label { font-size: 14px; font-weight: 600; text-anchor: middle; pointer-events: none; fill: white; }
.relationship-path { fill: none; stroke-linejoin: round; stroke-linecap: round; }
.relationship-path.stratigraphic { stroke: rgb(73, 80, 87); stroke-width: 2px; marker-end: url("#arrowhead"); }
.relationship-path.cuts { stroke: var(--danger-accent); stroke-width: 2.5px; stroke-dasharray: 6, 4; marker-end: url("#arrowhead-cuts"); }
.relationship-path.contemporary { stroke: rgb(73, 80, 87); stroke-width: 1.5px; }
.relationship-path.temporal-conflict { stroke: var(--danger-accent); stroke-width: 3px; animation: 2s ease 0s infinite normal none running pulse; marker-end: url("#arrowhead-cuts"); }
.relationship-path.redundant { stroke: rgb(173, 181, 189); stroke-width: 1.5px; stroke-dasharray: 2, 3; marker-end: url("#arrowhead-redundant"); }
.modal-backdrop { position: fixed; top: 0px; left: 0px; width: 100%; height: 100%; background: rgba(0, 0, 0, 0.5); display: none; align-items: center; justify-content: center; z-index: 1000; }
.modal-content { background: white; padding: 25px; border-radius: 8px; box-shadow: rgba(0, 0, 0, 0.3) 0px 5px 15px; width: 400px; max-height: 80vh; overflow-y: auto; }
.modal-content h4 { margin: 0px 0px 20px; }
.modal-content input, .modal-content select, .modal-content textarea { width: 100%; padding: 10px; margin-bottom: 15px; border: 1px solid var(--border-color); border-radius: 4px; box-sizing: border-box; }
.modal-buttons { display: flex; justify-content: space-between; gap: 10px; margin-top: 20px; }
.modal-buttons button { flex: 1 1 0%; padding: 10px; border: none; border-radius: 4px; cursor: pointer; color: white; }
.modal-buttons button.confirm { background: var(--primary-accent); }
.modal-buttons button.danger { background: var(--danger-accent); }
.modal-buttons button.cancel { background: var(--cancel-accent); }
.form-group { margin-bottom: 15px; }
.form-group label { display: block; margin-bottom: 5px; font-weight: 600; }
.form-row { display: flex; gap: 10px; }
.form-row input { flex: 1 1 0%; }
.date-inputs { display: grid; grid-template-columns: 2fr 1fr; gap: 10px; }
.hierarchy-list { margin-bottom: 20px; }
.hierarchy-item { padding: 10px; margin: 5px 0px; border-radius: 4px; border-left: 4px solid var(--primary-accent); background: rgb(248, 249, 250); cursor: pointer; transition: background 0.2s; }
.hierarchy-item:hover { background: rgb(233, 236, 239); }
.hierarchy-item.group { border-left-color: rgb(255, 152, 0); background: var(--group-bg); }
.hierarchy-item.subgroup { border-left-color: rgb(156, 39, 176); background: var(--subgroup-bg); margin-left: 20px; }
.hierarchy-item.phase { border-left-color: rgb(76, 175, 80); background: var(--phase-1); }
.hierarchy-item.temporal-conflict { border-left-color: var(--danger-accent); background: rgb(255, 235, 238); }
.item-header { font-weight: bold; margin-bottom: 5px; }
.item-details { font-size: 0.9em; color: rgb(102, 102, 102); }
.item-contexts { font-size: 0.8em; color: rgb(136, 136, 136); margin-top: 5px; }
.actions-panel { margin-top: 20px; }
.actions-panel button { width: 100%; margin-bottom: 10px; padding: 10px; border: none; color: white; border-radius: 5px; cursor: pointer; }
.btn-primary { background: var(--primary-accent); }
.btn-success { background: var(--success-accent); }
.btn-danger { background: var(--danger-accent); }
.btn-warning { background: var(--warning-accent); color: rgb(51, 51, 51); }
.conflict-indicator { display: inline-block; width: 12px; height: 12px; border-radius: 50%; background: var(--danger-accent); margin-left: 5px; animation: 2s ease 0s infinite normal none running pulse; }
.valid-indicator { display: inline-block; width: 12px; height: 12px; border-radius: 50%; background: var(--success-accent); margin-left: 5px; }
.tabs { display: flex; border-bottom: 1px solid var(--border-color); margin-bottom: 15px; }
.tab { padding: 10px 15px; cursor: pointer; border-bottom: 2px solid transparent; transition: border-color 0.2s; }
.tab.active { border-bottom-color: var(--primary-accent); background: rgb(248, 249, 250); }
.tab-content { display: none; }
.tab-content.active { display: block; }
</style><g class="grid-group" style="display: none;"><line class="vertical" x1="-4000" y1="-4000" x2="-4000" y2="4000" style="stroke: rgb(233, 236, 239); stroke-width: 1;"></line><line class="vertical" x1="-3940" y1="-4000" x2="-3940" y2="4000" style="stroke: rgb(233, 236, 239); stroke-width: 1;"></line><line class="vertical" x1="-3880" y1="-4000" x2="-3880" y2="4000" style="stroke: rgb(233, 236, 239); stroke-width: 1;"></line><line class="vertical" x1="-3820" y1="-4000" x2="-3820" y2="4000" style="stroke: rgb(233, 236, 239); stroke-width: 1;"></line><line class="vertical" x1="-3760" y1="-4000" x2="-3760" y2="4000" style="stroke: rgb(233, 236, 239); stroke-width: 1;"></line><line class="vertical" x1="-3700" y1="-4000" x2="-3700" y2="4000" style="stroke: rgb(233, 236, 239); stroke-width: 1;"></line><line class="vertical" x1="-3640" y1="-4000" x2="-3640" y2="4000" style="stroke: rgb(233, 236, 239); stroke-width: 1;"></line><line class="vertical" x1="-3580" y1="-4000" x2="-3580" y2="4000" style="stroke: rgb(233, 236, 239); stroke-width: 1;"></line><line class="vertical" x1="-3520" y1="-4000" x2="-3520" y2="4000" style="stroke: rgb(233, 236, 239); stroke-width: 1;"></line><line class="vertical" x1="-3460" y1="-4000" x2="-3460" y2="4000" style="stroke: rgb(233, 236, 239); stroke-width: 1;"></line><line class="vertical" x1="-3400" y1="-4000" x2="-3400" y2="4000" style="stroke: rgb(233, 236, 239); stroke-width: 1;"></line><line class="vertical" x1="-3340" y1="-4000" x2="-3340" y2="4000" style="stroke: rgb(233, 236, 239); stroke-width: 1;"></line><line class="vertical" x1="-3280" y1="-4000" x2="-3280" y2="4000" style="stroke: rgb(233, 236, 239); stroke-width: 1;"></line><line class="vertical" x1="-3220" y1="-4000" x2="-3220" y2="4000" style="stroke: rgb(233, 236, 239); stroke-width: 1;"></line><line class="vertical" x1="-3160" y1="-4000" x2="-3160" y2="4000" style="stroke: rgb(233, 236, 239); stroke-width: 1;"></line><line class="vertical" x1="-3100" y1="-4000" x2="-3100" y2="4000" style="stroke: rgb(233, 236, 239); stroke-width: 1;"></line><line class="vertical" x1="-3040" y1="-4000" x2="-3040" y2="4000" style="stroke: rgb(233, 236, 239); stroke-width: 1;"></line><line class="vertical" x1="-2980" y1="-4000" x2="-2980" y2="4000" style="stroke: rgb(233, 236, 239); stroke-width: 1;"></line><line class="vertical" x1="-2920" y1="-4000" x2="-2920" y2="4000" style="stroke: rgb(233, 236, 239); stroke-width: 1;"></line><line class="vertical" x1="-2860" y1="-4000" x2="-2860" y2="4000" style="stroke: rgb(233, 236, 239); stroke-width: 1;"></line><line class="vertical" x1="-2800" y1="-4000" x2="-2800" y2="4000" style="stroke: rgb(233, 236, 239); stroke-width: 1;"></line><line class="vertical" x1="-2740" y1="-4000" x2="-2740" y2="4000" style="stroke: rgb(233, 236, 239); stroke-width: 1;"></line><line class="vertical" x1="-2680" y1="-4000" x2="-2680" y2="4000" style="stroke: rgb(233, 236, 239); stroke-width: 1;"></line><line class="vertical" x1="-2620" y1="-4000" x2="-2620" y2="4000" style="stroke: rgb(233, 236, 239); stroke-width: 1;"></line><line class="vertical" x1="-2560" y1="-4000" x2="-2560" y2="4000" style="stroke: rgb(233, 236, 239); stroke-width: 1;"></line><line class="vertical" x1="-2500" y1="-4000" x2="-2500" y2="4000" style="stroke: rgb(233, 236, 239); stroke-width: 1;"></line><line class="vertical" x1="-2440" y1="-4000" x2="-2440" y2="4000" style="stroke: rgb(233, 236, 239); stroke-width: 1;"></line><line class="vertical" x1="-2380" y1="-4000" x2="-2380" y2="4000" style="stroke: rgb(233, 236, 239); stroke-width: 1;"></line><line class="vertical" x1="-2320" y1="-4000" x2="-2320" y2="4000" style="stroke: rgb(233, 236, 239); stroke-width: 1;"></line><line class="vertical" x1="-2260" y1="-4000" x2="-2260" y2="4000" style="stroke: rgb(233, 236, 239); stroke-width: 1;"></line><line class="vertical" x1="-2200" y1="-4000" x2="-2200" y2="4000" style="stroke: rgb(233, 236, 239); stroke-width: 1;"></line><line class="vertical" x1="-2140" y1="-4000" x2="-2140" y2="4000" style="stroke: rgb(233, 236, 239); stroke-width: 1;"></line><line class="vertical" x1="-2080" y1="-4000" x2="-2080" y2="4000" style="stroke: rgb(233, 236, 239); stroke-width: 1;"></line><line class="vertical" x1="-2020" y1="-4000" x2="-2020" y2="4000" style="stroke: rgb(233, 236, 239); stroke-width: 1;"></line><line class="vertical" x1="-1960" y1="-4000" x2="-1960" y2="4000" style="stroke: rgb(233, 236, 239); stroke-width: 1;"></line><line class="vertical" x1="-1900" y1="-4000" x2="-1900" y2="4000" style="stroke: rgb(233, 236, 239); stroke-width: 1;"></line><line class="vertical" x1="-1840" y1="-4000" x2="-1840" y2="4000" style="stroke: rgb(233, 236, 239); stroke-width: 1;"></line><line class="vertical" x1="-1780" y1="-4000" x2="-1780" y2="4000" style="stroke: rgb(233, 236, 239); stroke-width: 1;"></line><line class="vertical" x1="-1720" y1="-4000" x2="-1720" y2="4000" style="stroke: rgb(233, 236, 239); stroke-width: 1;"></line><line class="vertical" x1="-1660" y1="-4000" x2="-1660" y2="4000" style="stroke: rgb(233, 236, 239); stroke-width: 1;"></line><line class="vertical" x1="-1600" y1="-4000" x2="-1600" y2="4000" style="stroke: rgb(233, 236, 239); stroke-width: 1;"></line><line class="vertical" x1="-1540" y1="-4000" x2="-1540" y2="4000" style="stroke: rgb(233, 236, 239); stroke-width: 1;"></line><line class="vertical" x1="-1480" y1="-4000" x2="-1480" y2="4000" style="stroke: rgb(233, 236, 239); stroke-width: 1;"></line><line class="vertical" x1="-1420" y1="-4000" x2="-1420" y2="4000" style="stroke: rgb(233, 236, 239); stroke-width: 1;"></line><line class="vertical" x1="-1360" y1="-4000" x2="-1360" y2="4000" style="stroke: rgb(233, 236, 239); stroke-width: 1;"></line><line class="vertical" x1="-1300" y1="-4000" x2="-1300" y2="4000" style="stroke: rgb(233, 236, 239); stroke-width: 1;"></line><line class="vertical" x1="-1240" y1="-4000" x2="-1240" y2="4000" style="stroke: rgb(233, 236, 239); stroke-width: 1;"></line><line class="vertical" x1="-1180" y1="-4000" x2="-1180" y2="4000" style="stroke: rgb(233, 236, 239); stroke-width: 1;"></line><line class="vertical" x1="-1120" y1="-4000" x2="-1120" y2="4000" style="stroke: rgb(233, 236, 239); stroke-width: 1;"></line><line class="vertical" x1="-1060" y1="-4000" x2="-1060" y2="4000" style="stroke: rgb(233, 236, 239); stroke-width: 1;"></line><line class="vertical" x1="-1000" y1="-4000" x2="-1000" y2="4000" style="stroke: rgb(233, 236, 239); stroke-width: 1;"></line><line class="vertical" x1="-940" y1="-4000" x2="-940" y2="4000" style="stroke: rgb(233, 236, 239); stroke-width: 1;"></line><line class="vertical" x1="-880" y1="-4000" x2="-880" y2="4000" style="stroke: rgb(233, 236, 239); stroke-width: 1;"></line><line class="vertical" x1="-820" y1="-4000" x2="-820" y2="4000" style="stroke: rgb(233, 236, 239); stroke-width: 1;"></line><line class="vertical" x1="-760" y1="-4000" x2="-760" y2="4000" style="stroke: rgb(233, 236, 239); stroke-width: 1;"></line><line class="vertical" x1="-700" y1="-4000" x2="-700" y2="4000" style="stroke: rgb(233, 236, 239); stroke-width: 1;"></line><line class="vertical" x1="-640" y1="-4000" x2="-640" y2="4000" style="stroke: rgb(233, 236, 239); stroke-width: 1;"></line><line class="vertical" x1="-580" y1="-4000" x2="-580" y2="4000" style="stroke: rgb(233, 236, 239); stroke-width: 1;"></line><line class="vertical" x1="-520" y1="-4000" x2="-520" y2="4000" style="stroke: rgb(233, 236, 239); stroke-width: 1;"></line><line class="vertical" x1="-460" y1="-4000" x2="-460" y2="4000" style="stroke: rgb(233, 236, 239); stroke-width: 1;"></line><line class="vertical" x1="-400" y1="-4000" x2="-400" y2="4000" style="stroke: rgb(233, 236, 239); stroke-width: 1;"></line><line class="vertical" x1="-340" y1="-4000" x2="-340" y2="4000" style="stroke: rgb(233, 236, 239); stroke-width: 1;"></line><line class="vertical" x1="-280" y1="-4000" x2="-280" y2="4000" style="stroke: rgb(233, 236, 239); stroke-width: 1;"></line><line class="vertical" x1="-220" y1="-4000" x2="-220" y2="4000" style="stroke: rgb(233, 236, 239); stroke-width: 1;"></line><line class="vertical" x1="-160" y1="-4000" x2="-160" y2="4000" style="stroke: rgb(233, 236, 239); stroke-width: 1;"></line><line class="vertical" x1="-100" y1="-4000" x2="-100" y2="4000" style="stroke: rgb(233, 236, 239); stroke-width: 1;"></line><line class="vertical" x1="-40" y1="-4000" x2="-40" y2="4000" style="stroke: rgb(233, 236, 239); stroke-width: 1;"></line><line class="vertical" x1="20" y1="-4000" x2="20" y2="4000" style="stroke: rgb(233, 236, 239); stroke-width: 1;"></line><line class="vertical" x1="80" y1="-4000" x2="80" y2="4000" style="stroke: rgb(233, 236, 239); stroke-width: 1;"></line><line class="vertical" x1="140" y1="-4000" x2="140" y2="4000" style="stroke: rgb(233, 236, 239); stroke-width: 1;"></line><line class="vertical" x1="200" y1="-4000" x2="200" y2="4000" style="stroke: rgb(233, 236, 239); stroke-width: 1;"></line><line class="vertical" x1="260" y1="-4000" x2="260" y2="4000" style="stroke: rgb(233, 236, 239); stroke-width: 1;"></line><line class="vertical" x1="320" y1="-4000" x2="320" y2="4000" style="stroke: rgb(233, 236, 239); stroke-width: 1;"></line><line class="vertical" x1="380" y1="-4000" x2="380" y2="4000" style="stroke: rgb(233, 236, 239); stroke-width: 1;"></line><line class="vertical" x1="440" y1="-4000" x2="440" y2="4000" style="stroke: rgb(233, 236, 239); stroke-width: 1;"></line><line class="vertical" x1="500" y1="-4000" x2="500" y2="4000" style="stroke: rgb(233, 236, 239); stroke-width: 1;"></line><line class="vertical" x1="560" y1="-4000" x2="560" y2="4000" style="stroke: rgb(233, 236, 239); stroke-width: 1;"></line><line class="vertical" x1="620" y1="-4000" x2="620" y2="4000" style="stroke: rgb(233, 236, 239); stroke-width: 1;"></line><line class="vertical" x1="680" y1="-4000" x2="680" y2="4000" style="stroke: rgb(233, 236, 239); stroke-width: 1;"></line><line class="vertical" x1="740" y1="-4000" x2="740" y2="4000" style="stroke: rgb(233, 236, 239); stroke-width: 1;"></line><line class="vertical" x1="800" y1="-4000" x2="800" y2="4000" style="stroke: rgb(233, 236, 239); stroke-width: 1;"></line><line class="vertical" x1="860" y1="-4000" x2="860" y2="4000" style="stroke: rgb(233, 236, 239); stroke-width: 1;"></line><line class="vertical" x1="920" y1="-4000" x2="920" y2="4000" style="stroke: rgb(233, 236, 239); stroke-width: 1;"></line><line class="vertical" x1="980" y1="-4000" x2="980" y2="4000" style="stroke: rgb(233, 236, 239); stroke-width: 1;"></line><line class="vertical" x1="1040" y1="-4000" x2="1040" y2="4000" style="stroke: rgb(233, 236, 239); stroke-width: 1;"></line><line class="vertical" x1="1100" y1="-4000" x2="1100" y2="4000" style="stroke: rgb(233, 236, 239); stroke-width: 1;"></line><line class="vertical" x1="1160" y1="-4000" x2="1160" y2="4000" style="stroke: rgb(233, 236, 239); stroke-width: 1;"></line><line class="vertical" x1="1220" y1="-4000" x2="1220" y2="4000" style="stroke: rgb(233, 236, 239); stroke-width: 1;"></line><line class="vertical" x1="1280" y1="-4000" x2="1280" y2="4000" style="stroke: rgb(233, 236, 239); stroke-width: 1;"></line><line class="vertical" x1="1340" y1="-4000" x2="1340" y2="4000" style="stroke: rgb(233, 236, 239); stroke-width: 1;"></line><line class="vertical" x1="1400" y1="-4000" x2="1400" y2="4000" style="stroke: rgb(233, 236, 239); stroke-width: 1;"></line><line class="vertical" x1="1460" y1="-4000" x2="1460" y2="4000" style="stroke: rgb(233, 236, 239); stroke-width: 1;"></line><line class="vertical" x1="1520" y1="-4000" x2="1520" y2="4000" style="stroke: rgb(233, 236, 239); stroke-width: 1;"></line><line class="vertical" x1="1580" y1="-4000" x2="1580" y2="4000" style="stroke: rgb(233, 236, 239); stroke-width: 1;"></line><line class="vertical" x1="1640" y1="-4000" x2="1640" y2="4000" style="stroke: rgb(233, 236, 239); stroke-width: 1;"></line><line class="vertical" x1="1700" y1="-4000" x2="1700" y2="4000" style="stroke: rgb(233, 236, 239); stroke-width: 1;"></line><line class="vertical" x1="1760" y1="-4000" x2="1760" y2="4000" style="stroke: rgb(233, 236, 239); stroke-width: 1;"></line><line class="vertical" x1="1820" y1="-4000" x2="1820" y2="4000" style="stroke: rgb(233, 236, 239); stroke-width: 1;"></line><line class="vertical" x1="1880" y1="-4000" x2="1880" y2="4000" style="stroke: rgb(233, 236, 239); stroke-width: 1;"></line><line class="vertical" x1="1940" y1="-4000" x2="1940" y2="4000" style="stroke: rgb(233, 236, 239); stroke-width: 1;"></line><line class="vertical" x1="2000" y1="-4000" x2="2000" y2="4000" style="stroke: rgb(233, 236, 239); stroke-width: 1;"></line><line class="vertical" x1="2060" y1="-4000" x2="2060" y2="4000" style="stroke: rgb(233, 236, 239); stroke-width: 1;"></line><line class="vertical" x1="2120" y1="-4000" x2="2120" y2="4000" style="stroke: rgb(233, 236, 239); stroke-width: 1;"></line><line class="vertical" x1="2180" y1="-4000" x2="2180" y2="4000" style="stroke: rgb(233, 236, 239); stroke-width: 1;"></line><line class="vertical" x1="2240" y1="-4000" x2="2240" y2="4000" style="stroke: rgb(233, 236, 239); stroke-width: 1;"></line><line class="vertical" x1="2300" y1="-4000" x2="2300" y2="4000" style="stroke: rgb(233, 236, 239); stroke-width: 1;"></line><line class="vertical" x1="2360" y1="-4000" x2="2360" y2="4000" style="stroke: rgb(233, 236, 239); stroke-width: 1;"></line><line class="vertical" x1="2420" y1="-4000" x2="2420" y2="4000" style="stroke: rgb(233, 236, 239); stroke-width: 1;"></line><line class="vertical" x1="2480" y1="-4000" x2="2480" y2="4000" style="stroke: rgb(233, 236, 239); stroke-width: 1;"></line><line class="vertical" x1="2540" y1="-4000" x2="2540" y2="4000" style="stroke: rgb(233, 236, 239); stroke-width: 1;"></line><line class="vertical" x1="2600" y1="-4000" x2="2600" y2="4000" style="stroke: rgb(233, 236, 239); stroke-width: 1;"></line><line class="vertical" x1="2660" y1="-4000" x2="2660" y2="4000" style="stroke: rgb(233, 236, 239); stroke-width: 1;"></line><line class="vertical" x1="2720" y1="-4000" x2="2720" y2="4000" style="stroke: rgb(233, 236, 239); stroke-width: 1;"></line><line class="vertical" x1="2780" y1="-4000" x2="2780" y2="4000" style="stroke: rgb(233, 236, 239); stroke-width: 1;"></line><line class="vertical" x1="2840" y1="-4000" x2="2840" y2="4000" style="stroke: rgb(233, 236, 239); stroke-width: 1;"></line><line class="vertical" x1="2900" y1="-4000" x2="2900" y2="4000" style="stroke: rgb(233, 236, 239); stroke-width: 1;"></line><line class="vertical" x1="2960" y1="-4000" x2="2960" y2="4000" style="stroke: rgb(233, 236, 239); stroke-width: 1;"></line><line class="vertical" x1="3020" y1="-4000" x2="3020" y2="4000" style="stroke: rgb(233, 236, 239); stroke-width: 1;"></line><line class="vertical" x1="3080" y1="-4000" x2="3080" y2="4000" style="stroke: rgb(233, 236, 239); stroke-width: 1;"></line><line class="vertical" x1="3140" y1="-4000" x2="3140" y2="4000" style="stroke: rgb(233, 236, 239); stroke-width: 1;"></line><line class="vertical" x1="3200" y1="-4000" x2="3200" y2="4000" style="stroke: rgb(233, 236, 239); stroke-width: 1;"></line><line class="vertical" x1="3260" y1="-4000" x2="3260" y2="4000" style="stroke: rgb(233, 236, 239); stroke-width: 1;"></line><line class="vertical" x1="3320" y1="-4000" x2="3320" y2="4000" style="stroke: rgb(233, 236, 239); stroke-width: 1;"></line><line class="vertical" x1="3380" y1="-4000" x2="3380" y2="4000" style="stroke: rgb(233, 236, 239); stroke-width: 1;"></line><line class="vertical" x1="3440" y1="-4000" x2="3440" y2="4000" style="stroke: rgb(233, 236, 239); stroke-width: 1;"></line><line class="vertical" x1="3500" y1="-4000" x2="3500" y2="4000" style="stroke: rgb(233, 236, 239); stroke-width: 1;"></line><line class="vertical" x1="3560" y1="-4000" x2="3560" y2="4000" style="stroke: rgb(233, 236, 239); stroke-width: 1;"></line><line class="vertical" x1="3620" y1="-4000" x2="3620" y2="4000" style="stroke: rgb(233, 236, 239); stroke-width: 1;"></line><line class="vertical" x1="3680" y1="-4000" x2="3680" y2="4000" style="stroke: rgb(233, 236, 239); stroke-width: 1;"></line><line class="vertical" x1="3740" y1="-4000" x2="3740" y2="4000" style="stroke: rgb(233, 236, 239); stroke-width: 1;"></line><line class="vertical" x1="3800" y1="-4000" x2="3800" y2="4000" style="stroke: rgb(233, 236, 239); stroke-width: 1;"></line><line class="vertical" x1="3860" y1="-4000" x2="3860" y2="4000" style="stroke: rgb(233, 236, 239); stroke-width: 1;"></line><line class="vertical" x1="3920" y1="-4000" x2="3920" y2="4000" style="stroke: rgb(233, 236, 239); stroke-width: 1;"></line><line class="vertical" x1="3980" y1="-4000" x2="3980" y2="4000" style="stroke: rgb(233, 236, 239); stroke-width: 1;"></line><line class="horizontal" x1="-4000" y1="-4000" x2="4000" y2="-4000" style="stroke: rgb(233, 236, 239); stroke-width: 1;"></line><line class="horizontal" x1="-4000" y1="-3940" x2="4000" y2="-3940" style="stroke: rgb(233, 236, 239); stroke-width: 1;"></line><line class="horizontal" x1="-4000" y1="-3880" x2="4000" y2="-3880" style="stroke: rgb(233, 236, 239); stroke-width: 1;"></line><line class="horizontal" x1="-4000" y1="-3820" x2="4000" y2="-3820" style="stroke: rgb(233, 236, 239); stroke-width: 1;"></line><line class="horizontal" x1="-4000" y1="-3760" x2="4000" y2="-3760" style="stroke: rgb(233, 236, 239); stroke-width: 1;"></line><line class="horizontal" x1="-4000" y1="-3700" x2="4000" y2="-3700" style="stroke: rgb(233, 236, 239); stroke-width: 1;"></line><line class="horizontal" x1="-4000" y1="-3640" x2="4000" y2="-3640" style="stroke: rgb(233, 236, 239); stroke-width: 1;"></line><line class="horizontal" x1="-4000" y1="-3580" x2="4000" y2="-3580" style="stroke: rgb(233, 236, 239); stroke-width: 1;"></line><line class="horizontal" x1="-4000" y1="-3520" x2="4000" y2="-3520" style="stroke: rgb(233, 236, 239); stroke-width: 1;"></line><line class="horizontal" x1="-4000" y1="-3460" x2="4000" y2="-3460" style="stroke: rgb(233, 236, 239); stroke-width: 1;"></line><line class="horizontal" x1="-4000" y1="-3400" x2="4000" y2="-3400" style="stroke: rgb(233, 236, 239); stroke-width: 1;"></line><line class="horizontal" x1="-4000" y1="-3340" x2="4000" y2="-3340" style="stroke: rgb(233, 236, 239); stroke-width: 1;"></line><line class="horizontal" x1="-4000" y1="-3280" x2="4000" y2="-3280" style="stroke: rgb(233, 236, 239); stroke-width: 1;"></line><line class="horizontal" x1="-4000" y1="-3220" x2="4000" y2="-3220" style="stroke: rgb(233, 236, 239); stroke-width: 1;"></line><line class="horizontal" x1="-4000" y1="-3160" x2="4000" y2="-3160" style="stroke: rgb(233, 236, 239); stroke-width: 1;"></line><line class="horizontal" x1="-4000" y1="-3100" x2="4000" y2="-3100" style="stroke: rgb(233, 236, 239); stroke-width: 1;"></line><line class="horizontal" x1="-4000" y1="-3040" x2="4000" y2="-3040" style="stroke: rgb(233, 236, 239); stroke-width: 1;"></line><line class="horizontal" x1="-4000" y1="-2980" x2="4000" y2="-2980" style="stroke: rgb(233, 236, 239); stroke-width: 1;"></line><line class="horizontal" x1="-4000" y1="-2920" x2="4000" y2="-2920" style="stroke: rgb(233, 236, 239); stroke-width: 1;"></line><line class="horizontal" x1="-4000" y1="-2860" x2="4000" y2="-2860" style="stroke: rgb(233, 236, 239); stroke-width: 1;"></line><line class="horizontal" x1="-4000" y1="-2800" x2="4000" y2="-2800" style="stroke: rgb(233, 236, 239); stroke-width: 1;"></line><line class="horizontal" x1="-4000" y1="-2740" x2="4000" y2="-2740" style="stroke: rgb(233, 236, 239); stroke-width: 1;"></line><line class="horizontal" x1="-4000" y1="-2680" x2="4000" y2="-2680" style="stroke: rgb(233, 236, 239); stroke-width: 1;"></line><line class="horizontal" x1="-4000" y1="-2620" x2="4000" y2="-2620" style="stroke: rgb(233, 236, 239); stroke-width: 1;"></line><line class="horizontal" x1="-4000" y1="-2560" x2="4000" y2="-2560" style="stroke: rgb(233, 236, 239); stroke-width: 1;"></line><line class="horizontal" x1="-4000" y1="-2500" x2="4000" y2="-2500" style="stroke: rgb(233, 236, 239); stroke-width: 1;"></line><line class="horizontal" x1="-4000" y1="-2440" x2="4000" y2="-2440" style="stroke: rgb(233, 236, 239); stroke-width: 1;"></line><line class="horizontal" x1="-4000" y1="-2380" x2="4000" y2="-2380" style="stroke: rgb(233, 236, 239); stroke-width: 1;"></line><line class="horizontal" x1="-4000" y1="-2320" x2="4000" y2="-2320" style="stroke: rgb(233, 236, 239); stroke-width: 1;"></line><line class="horizontal" x1="-4000" y1="-2260" x2="4000" y2="-2260" style="stroke: rgb(233, 236, 239); stroke-width: 1;"></line><line class="horizontal" x1="-4000" y1="-2200" x2="4000" y2="-2200" style="stroke: rgb(233, 236, 239); stroke-width: 1;"></line><line class="horizontal" x1="-4000" y1="-2140" x2="4000" y2="-2140" style="stroke: rgb(233, 236, 239); stroke-width: 1;"></line><line class="horizontal" x1="-4000" y1="-2080" x2="4000" y2="-2080" style="stroke: rgb(233, 236, 239); stroke-width: 1;"></line><line class="horizontal" x1="-4000" y1="-2020" x2="4000" y2="-2020" style="stroke: rgb(233, 236, 239); stroke-width: 1;"></line><line class="horizontal" x1="-4000" y1="-1960" x2="4000" y2="-1960" style="stroke: rgb(233, 236, 239); stroke-width: 1;"></line><line class="horizontal" x1="-4000" y1="-1900" x2="4000" y2="-1900" style="stroke: rgb(233, 236, 239); stroke-width: 1;"></line><line class="horizontal" x1="-4000" y1="-1840" x2="4000" y2="-1840" style="stroke: rgb(233, 236, 239); stroke-width: 1;"></line><line class="horizontal" x1="-4000" y1="-1780" x2="4000" y2="-1780" style="stroke: rgb(233, 236, 239); stroke-width: 1;"></line><line class="horizontal" x1="-4000" y1="-1720" x2="4000" y2="-1720" style="stroke: rgb(233, 236, 239); stroke-width: 1;"></line><line class="horizontal" x1="-4000" y1="-1660" x2="4000" y2="-1660" style="stroke: rgb(233, 236, 239); stroke-width: 1;"></line><line class="horizontal" x1="-4000" y1="-1600" x2="4000" y2="-1600" style="stroke: rgb(233, 236, 239); stroke-width: 1;"></line><line class="horizontal" x1="-4000" y1="-1540" x2="4000" y2="-1540" style="stroke: rgb(233, 236, 239); stroke-width: 1;"></line><line class="horizontal" x1="-4000" y1="-1480" x2="4000" y2="-1480" style="stroke: rgb(233, 236, 239); stroke-width: 1;"></line><line class="horizontal" x1="-4000" y1="-1420" x2="4000" y2="-1420" style="stroke: rgb(233, 236, 239); stroke-width: 1;"></line><line class="horizontal" x1="-4000" y1="-1360" x2="4000" y2="-1360" style="stroke: rgb(233, 236, 239); stroke-width: 1;"></line><line class="horizontal" x1="-4000" y1="-1300" x2="4000" y2="-1300" style="stroke: rgb(233, 236, 239); stroke-width: 1;"></line><line class="horizontal" x1="-4000" y1="-1240" x2="4000" y2="-1240" style="stroke: rgb(233, 236, 239); stroke-width: 1;"></line><line class="horizontal" x1="-4000" y1="-1180" x2="4000" y2="-1180" style="stroke: rgb(233, 236, 239); stroke-width: 1;"></line><line class="horizontal" x1="-4000" y1="-1120" x2="4000" y2="-1120" style="stroke: rgb(233, 236, 239); stroke-width: 1;"></line><line class="horizontal" x1="-4000" y1="-1060" x2="4000" y2="-1060" style="stroke: rgb(233, 236, 239); stroke-width: 1;"></line><line class="horizontal" x1="-4000" y1="-1000" x2="4000" y2="-1000" style="stroke: rgb(233, 236, 239); stroke-width: 1;"></line><line class="horizontal" x1="-4000" y1="-940" x2="4000" y2="-940" style="stroke: rgb(233, 236, 239); stroke-width: 1;"></line><line class="horizontal" x1="-4000" y1="-880" x2="4000" y2="-880" style="stroke: rgb(233, 236, 239); stroke-width: 1;"></line><line class="horizontal" x1="-4000" y1="-820" x2="4000" y2="-820" style="stroke: rgb(233, 236, 239); stroke-width: 1;"></line><line class="horizontal" x1="-4000" y1="-760" x2="4000" y2="-760" style="stroke: rgb(233, 236, 239); stroke-width: 1;"></line><line class="horizontal" x1="-4000" y1="-700" x2="4000" y2="-700" style="stroke: rgb(233, 236, 239); stroke-width: 1;"></line><line class="horizontal" x1="-4000" y1="-640" x2="4000" y2="-640" style="stroke: rgb(233, 236, 239); stroke-width: 1;"></line><line class="horizontal" x1="-4000" y1="-580" x2="4000" y2="-580" style="stroke: rgb(233, 236, 239); stroke-width: 1;"></line><line class="horizontal" x1="-4000" y1="-520" x2="4000" y2="-520" style="stroke: rgb(233, 236, 239); stroke-width: 1;"></line><line class="horizontal" x1="-4000" y1="-460" x2="4000" y2="-460" style="stroke: rgb(233, 236, 239); stroke-width: 1;"></line><line class="horizontal" x1="-4000" y1="-400" x2="4000" y2="-400" style="stroke: rgb(233, 236, 239); stroke-width: 1;"></line><line class="horizontal" x1="-4000" y1="-340" x2="4000" y2="-340" style="stroke: rgb(233, 236, 239); stroke-width: 1;"></line><line class="horizontal" x1="-4000" y1="-280" x2="4000" y2="-280" style="stroke: rgb(233, 236, 239); stroke-width: 1;"></line><line class="horizontal" x1="-4000" y1="-220" x2="4000" y2="-220" style="stroke: rgb(233, 236, 239); stroke-width: 1;"></line><line class="horizontal" x1="-4000" y1="-160" x2="4000" y2="-160" style="stroke: rgb(233, 236, 239); stroke-width: 1;"></line><line class="horizontal" x1="-4000" y1="-100" x2="4000" y2="-100" style="stroke: rgb(233, 236, 239); stroke-width: 1;"></line><line class="horizontal" x1="-4000" y1="-40" x2="4000" y2="-40" style="stroke: rgb(233, 236, 239); stroke-width: 1;"></line><line class="horizontal" x1="-4000" y1="20" x2="4000" y2="20" style="stroke: rgb(233, 236, 239); stroke-width: 1;"></line><line class="horizontal" x1="-4000" y1="80" x2="4000" y2="80" style="stroke: rgb(233, 236, 239); stroke-width: 1;"></line><line class="horizontal" x1="-4000" y1="140" x2="4000" y2="140" style="stroke: rgb(233, 236, 239); stroke-width: 1;"></line><line class="horizontal" x1="-4000" y1="200" x2="4000" y2="200" style="stroke: rgb(233, 236, 239); stroke-width: 1;"></line><line class="horizontal" x1="-4000" y1="260" x2="4000" y2="260" style="stroke: rgb(233, 236, 239); stroke-width: 1;"></line><line class="horizontal" x1="-4000" y1="320" x2="4000" y2="320" style="stroke: rgb(233, 236, 239); stroke-width: 1;"></line><line class="horizontal" x1="-4000" y1="380" x2="4000" y2="380" style="stroke: rgb(233, 236, 239); stroke-width: 1;"></line><line class="horizontal" x1="-4000" y1="440" x2="4000" y2="440" style="stroke: rgb(233, 236, 239); stroke-width: 1;"></line><line class="horizontal" x1="-4000" y1="500" x2="4000" y2="500" style="stroke: rgb(233, 236, 239); stroke-width: 1;"></line><line class="horizontal" x1="-4000" y1="560" x2="4000" y2="560" style="stroke: rgb(233, 236, 239); stroke-width: 1;"></line><line class="horizontal" x1="-4000" y1="620" x2="4000" y2="620" style="stroke: rgb(233, 236, 239); stroke-width: 1;"></line><line class="horizontal" x1="-4000" y1="680" x2="4000" y2="680" style="stroke: rgb(233, 236, 239); stroke-width: 1;"></line><line class="horizontal" x1="-4000" y1="740" x2="4000" y2="740" style="stroke: rgb(233, 236, 239); stroke-width: 1;"></line><line class="horizontal" x1="-4000" y1="800" x2="4000" y2="800" style="stroke: rgb(233, 236, 239); stroke-width: 1;"></line><line class="horizontal" x1="-4000" y1="860" x2="4000" y2="860" style="stroke: rgb(233, 236, 239); stroke-width: 1;"></line><line class="horizontal" x1="-4000" y1="920" x2="4000" y2="920" style="stroke: rgb(233, 236, 239); stroke-width: 1;"></line><line class="horizontal" x1="-4000" y1="980" x2="4000" y2="980" style="stroke: rgb(233, 236, 239); stroke-width: 1;"></line><line class="horizontal" x1="-4000" y1="1040" x2="4000" y2="1040" style="stroke: rgb(233, 236, 239); stroke-width: 1;"></line><line class="horizontal" x1="-4000" y1="1100" x2="4000" y2="1100" style="stroke: rgb(233, 236, 239); stroke-width: 1;"></line><line class="horizontal" x1="-4000" y1="1160" x2="4000" y2="1160" style="stroke: rgb(233, 236, 239); stroke-width: 1;"></line><line class="horizontal" x1="-4000" y1="1220" x2="4000" y2="1220" style="stroke: rgb(233, 236, 239); stroke-width: 1;"></line><line class="horizontal" x1="-4000" y1="1280" x2="4000" y2="1280" style="stroke: rgb(233, 236, 239); stroke-width: 1;"></line><line class="horizontal" x1="-4000" y1="1340" x2="4000" y2="1340" style="stroke: rgb(233, 236, 239); stroke-width: 1;"></line><line class="horizontal" x1="-4000" y1="1400" x2="4000" y2="1400" style="stroke: rgb(233, 236, 239); stroke-width: 1;"></line><line class="horizontal" x1="-4000" y1="1460" x2="4000" y2="1460" style="stroke: rgb(233, 236, 239); stroke-width: 1;"></line><line class="horizontal" x1="-4000" y1="1520" x2="4000" y2="1520" style="stroke: rgb(233, 236, 239); stroke-width: 1;"></line><line class="horizontal" x1="-4000" y1="1580" x2="4000" y2="1580" style="stroke: rgb(233, 236, 239); stroke-width: 1;"></line><line class="horizontal" x1="-4000" y1="1640" x2="4000" y2="1640" style="stroke: rgb(233, 236, 239); stroke-width: 1;"></line><line class="horizontal" x1="-4000" y1="1700" x2="4000" y2="1700" style="stroke: rgb(233, 236, 239); stroke-width: 1;"></line><line class="horizontal" x1="-4000" y1="1760" x2="4000" y2="1760" style="stroke: rgb(233, 236, 239); stroke-width: 1;"></line><line class="horizontal" x1="-4000" y1="1820" x2="4000" y2="1820" style="stroke: rgb(233, 236, 239); stroke-width: 1;"></line><line class="horizontal" x1="-4000" y1="1880" x2="4000" y2="1880" style="stroke: rgb(233, 236, 239); stroke-width: 1;"></line><line class="horizontal" x1="-4000" y1="1940" x2="4000" y2="1940" style="stroke: rgb(233, 236, 239); stroke-width: 1;"></line><line class="horizontal" x1="-4000" y1="2000" x2="4000" y2="2000" style="stroke: rgb(233, 236, 239); stroke-width: 1;"></line><line class="horizontal" x1="-4000" y1="2060" x2="4000" y2="2060" style="stroke: rgb(233, 236, 239); stroke-width: 1;"></line><line class="horizontal" x1="-4000" y1="2120" x2="4000" y2="2120" style="stroke: rgb(233, 236, 239); stroke-width: 1;"></line><line class="horizontal" x1="-4000" y1="2180" x2="4000" y2="2180" style="stroke: rgb(233, 236, 239); stroke-width: 1;"></line><line class="horizontal" x1="-4000" y1="2240" x2="4000" y2="2240" style="stroke: rgb(233, 236, 239); stroke-width: 1;"></line><line class="horizontal" x1="-4000" y1="2300" x2="4000" y2="2300" style="stroke: rgb(233, 236, 239); stroke-width: 1;"></line><line class="horizontal" x1="-4000" y1="2360" x2="4000" y2="2360" style="stroke: rgb(233, 236, 239); stroke-width: 1;"></line><line class="horizontal" x1="-4000" y1="2420" x2="4000" y2="2420" style="stroke: rgb(233, 236, 239); stroke-width: 1;"></line><line class="horizontal" x1="-4000" y1="2480" x2="4000" y2="2480" style="stroke: rgb(233, 236, 239); stroke-width: 1;"></line><line class="horizontal" x1="-4000" y1="2540" x2="4000" y2="2540" style="stroke: rgb(233, 236, 239); stroke-width: 1;"></line><line class="horizontal" x1="-4000" y1="2600" x2="4000" y2="2600" style="stroke: rgb(233, 236, 239); stroke-width: 1;"></line><line class="horizontal" x1="-4000" y1="2660" x2="4000" y2="2660" style="stroke: rgb(233, 236, 239); stroke-width: 1;"></line><line class="horizontal" x1="-4000" y1="2720" x2="4000" y2="2720" style="stroke: rgb(233, 236, 239); stroke-width: 1;"></line><line class="horizontal" x1="-4000" y1="2780" x2="4000" y2="2780" style="stroke: rgb(233, 236, 239); stroke-width: 1;"></line><line class="horizontal" x1="-4000" y1="2840" x2="4000" y2="2840" style="stroke: rgb(233, 236, 239); stroke-width: 1;"></line><line class="horizontal" x1="-4000" y1="2900" x2="4000" y2="2900" style="stroke: rgb(233, 236, 239); stroke-width: 1;"></line><line class="horizontal" x1="-4000" y1="2960" x2="4000" y2="2960" style="stroke: rgb(233, 236, 239); stroke-width: 1;"></line><line class="horizontal" x1="-4000" y1="3020" x2="4000" y2="3020" style="stroke: rgb(233, 236, 239); stroke-width: 1;"></line><line class="horizontal" x1="-4000" y1="3080" x2="4000" y2="3080" style="stroke: rgb(233, 236, 239); stroke-width: 1;"></line><line class="horizontal" x1="-4000" y1="3140" x2="4000" y2="3140" style="stroke: rgb(233, 236, 239); stroke-width: 1;"></line><line class="horizontal" x1="-4000" y1="3200" x2="4000" y2="3200" style="stroke: rgb(233, 236, 239); stroke-width: 1;"></line><line class="horizontal" x1="-4000" y1="3260" x2="4000" y2="3260" style="stroke: rgb(233, 236, 239); stroke-width: 1;"></line><line class="horizontal" x1="-4000" y1="3320" x2="4000" y2="3320" style="stroke: rgb(233, 236, 239); stroke-width: 1;"></line><line class="horizontal" x1="-4000" y1="3380" x2="4000" y2="3380" style="stroke: rgb(233, 236, 239); stroke-width: 1;"></line><line class="horizontal" x1="-4000" y1="3440" x2="4000" y2="3440" style="stroke: rgb(233, 236, 239); stroke-width: 1;"></line><line class="horizontal" x1="-4000" y1="3500" x2="4000" y2="3500" style="stroke: rgb(233, 236, 239); stroke-width: 1;"></line><line class="horizontal" x1="-4000" y1="3560" x2="4000" y2="3560" style="stroke: rgb(233, 236, 239); stroke-width: 1;"></line><line class="horizontal" x1="-4000" y1="3620" x2="4000" y2="3620" style="stroke: rgb(233, 236, 239); stroke-width: 1;"></line><line class="horizontal" x1="-4000" y1="3680" x2="4000" y2="3680" style="stroke: rgb(233, 236, 239); stroke-width: 1;"></line><line class="horizontal" x1="-4000" y1="3740" x2="4000" y2="3740" style="stroke: rgb(233, 236, 239); stroke-width: 1;"></line><line class="horizontal" x1="-4000" y1="3800" x2="4000" y2="3800" style="stroke: rgb(233, 236, 239); stroke-width: 1;"></line><line class="horizontal" x1="-4000" y1="3860" x2="4000" y2="3860" style="stroke: rgb(233, 236, 239); stroke-width: 1;"></line><line class="horizontal" x1="-4000" y1="3920" x2="4000" y2="3920" style="stroke: rgb(233, 236, 239); stroke-width: 1;"></line><line class="horizontal" x1="-4000" y1="3980" x2="4000" y2="3980" style="stroke: rgb(233, 236, 239); stroke-width: 1;"></line></g><defs><marker id="arrowhead" viewBox="-2 -5 10 10" refX="5" refY="0" markerWidth="5" markerHeight="5" orient="auto"><path d="M0,-5L10,0L0,5" style="fill: rgb(73, 80, 87);"></path></marker><marker id="arrowhead-cuts" viewBox="-2 -5 10 10" refX="5" refY="0" markerWidth="5" markerHeight="5" orient="auto"><path d="M0,-5L10,0L0,5" style="fill: var(--danger-accent);"></path></marker><marker id="arrowhead-redundant" viewBox="-2 -5 10 10" refX="5" refY="0" markerWidth="4" markerHeight="4" orient="auto"><path d="M0,-5L10,0L0,5" style="fill: rgb(173, 181, 189);"></path></marker></defs><path class="relationship-path stratigraphic" d="M 99.4000015258789,192.5 V 110 H 99.4000015258789 V 27.5"></path><path class="relationship-path stratigraphic" d="M 99.4000015258789,312.5 V 230 H 99.4000015258789 V 147.5"></path><path class="relationship-path stratigraphic" d="M 99.4000015258789,672.5 V 590 H 99.4000015258789 V 507.5"></path><path class="relationship-path stratigraphic" d="M 174.4000015258789,792.5 V 710 H 99.4000015258789 V 627.5"></path><path class="relationship-path stratigraphic" d="M -50.599998474121094,1752.5 V 1681.25 H 24.400001525878906 V 1610"></path><path class="relationship-path stratigraphic" d="M 24.400001525878906,1610 V 1550 H 24.400001525878906 V 1490"></path><path class="relationship-path stratigraphic" d="M 24.400001525878906,1490 V 1430 H 24.400001525878906 V 1370"></path><path class="relationship-path stratigraphic" d="M 24.400001525878906,1370 V 1310 H 24.400001525878906 V 1250"></path><path class="relationship-path stratigraphic" d="M 24.400001525878906,1250 V 1190 H 24.400001525878906 V 1130"></path><path class="relationship-path stratigraphic" d="M 24.400001525878906,1130 V 1070 H 24.400001525878906 V 1010"></path><path class="relationship-path stratigraphic" d="M 24.400001525878906,1010 V 950 H 24.400001525878906 V 890"></path><path class="relationship-path stratigraphic" d="M 24.400001525878906,890 V 830 H 24.400001525878906 V 770"></path><path class="relationship-path stratigraphic" d="M 24.400001525878906,770 V 698.75 H 99.4000015258789 V 627.5"></path><path class="relationship-path stratigraphic" d="M 174.4000015258789,912.5 V 830 H 174.4000015258789 V 747.5"></path><path class="relationship-path stratigraphic" d="M 24.400001525878906,1872.5 V 1790 H -50.599998474121094 V 1707.5"></path><path class="relationship-path stratigraphic" d="M 174.4000015258789,1032.5 V 950 H 174.4000015258789 V 867.5"></path><path class="relationship-path stratigraphic" d="M 174.4000015258789,1152.5 V 1070 H 174.4000015258789 V 987.5"></path><path class="relationship-path stratigraphic" d="M 174.4000015258789,1272.5 V 1190 H 174.4000015258789 V 1107.5"></path><path class="relationship-path stratigraphic" d="M 174.4000015258789,1392.5 V 1310 H 174.4000015258789 V 1227.5"></path><path class="relationship-path stratigraphic" d="M 174.4000015258789,1512.5 V 1430 H 174.4000015258789 V 1347.5"></path><path class="relationship-path stratigraphic" d="M 174.4000015258789,1632.5 V 1550 H 174.4000015258789 V 1467.5"></path><path class="relationship-path stratigraphic" d="M 99.4000015258789,1752.5 V 1670 H 174.4000015258789 V 1587.5"></path><path class="relationship-path stratigraphic" d="M 249.4000015258789,1752.5 V 1670 H 174.4000015258789 V 1587.5"></path><path class="relationship-path stratigraphic" d="M 174.4000015258789,1872.5 V 1790 H 99.4000015258789 V 1707.5"></path><path class="relationship-path stratigraphic" d="M 174.4000015258789,1872.5 V 1790 H 249.4000015258789 V 1707.5"></path><path class="relationship-path stratigraphic" d="M 99.4000015258789,552.5 V 470 H 99.4000015258789 V 387.5"></path><path class="relationship-path stratigraphic" d="M 99.4000015258789,432.5 V 350 H 99.4000015258789 V 267.5"></path><g class="context-node-group" transform="translate(99.4000015258789, 50)"><rect class="context-node " x="-45" y="-22.5" width="90" height="45" rx="8"></rect><text class="context-label" dy="0.35em">1</text></g><g class="context-node-group" transform="translate(99.4000015258789, 170)"><rect class="context-node " x="-45" y="-22.5" width="90" height="45" rx="8"></rect><text class="context-label" dy="0.35em">2</text></g><g class="context-node-group" transform="translate(99.4000015258789, 290)"><rect class="context-node " x="-45" y="-22.5" width="90" height="45" rx="8"></rect><text class="context-label" dy="0.35em">19</text></g><g class="context-node-group" transform="translate(99.4000015258789, 530)"><rect class="context-node " x="-45" y="-22.5" width="90" height="45" rx="8"></rect><text class="context-label" dy="0.35em">3</text></g><g class="context-node-group" transform="translate(99.4000015258789, 650)"><rect class="context-node " x="-45" y="-22.5" width="90" height="45" rx="8"></rect><text class="context-label" dy="0.35em">4</text></g><g class="context-node-group" transform="translate(174.4000015258789, 770)"><rect class="context-node " x="-45" y="-22.5" width="90" height="45" rx="8"></rect><text class="context-label" dy="0.35em">5</text></g><g class="context-node-group" transform="translate(-50.599998474121094, 1730)"><rect class="context-node " x="-45" y="-22.5" width="90" height="45" rx="8"></rect><text class="context-label" dy="0.35em">6</text></g><g class="context-node-group" transform="translate(174.4000015258789, 890)"><rect class="context-node " x="-45" y="-22.5" width="90" height="45" rx="8"></rect><text class="context-label" dy="0.35em">7</text></g><g class="context-node-group" transform="translate(24.400001525878906, 1850)"><rect class="context-node " x="-45" y="-22.5" width="90" height="45" rx="8"></rect><text class="context-label" dy="0.35em">8</text></g><g class="context-node-group" transform="translate(174.4000015258789, 1010)"><rect class="context-node " x="-45" y="-22.5" width="90" height="45" rx="8"></rect><text class="context-label" dy="0.35em">9</text></g><g class="context-node-group" transform="translate(174.4000015258789, 1130)"><rect class="context-node " x="-45" y="-22.5" width="90" height="45" rx="8"></rect><text class="context-label" dy="0.35em">10</text></g><g class="context-node-group" transform="translate(174.4000015258789, 1250)"><rect class="context-node " x="-45" y="-22.5" width="90" height="45" rx="8"></rect><text class="context-label" dy="0.35em">11</text></g><g class="context-node-group" transform="translate(174.4000015258789, 1370)"><rect class="context-node " x="-45" y="-22.5" width="90" height="45" rx="8"></rect><text class="context-label" dy="0.35em">12</text></g><g class="context-node-group" transform="translate(174.4000015258789, 1490)"><rect class="context-node " x="-45" y="-22.5" width="90" height="45" rx="8"></rect><text class="context-label" dy="0.35em">13</text></g><g class="context-node-group" transform="translate(174.4000015258789, 1610)"><rect class="context-node " x="-45" y="-22.5" width="90" height="45" rx="8"></rect><text class="context-label" dy="0.35em">14</text></g><g class="context-node-group" transform="translate(99.4000015258789, 1730)"><rect class="context-node " x="-45" y="-22.5" width="90" height="45" rx="8"></rect><text class="context-label" dy="0.35em">15</text></g><g class="context-node-group" transform="translate(249.4000015258789, 1730)"><rect class="context-node " x="-45" y="-22.5" width="90" height="45" rx="8"></rect><text class="context-label" dy="0.35em">16</text></g><g class="context-node-group" transform="translate(174.4000015258789, 1850)"><rect class="context-node " x="-45" y="-22.5" width="90" height="45" rx="8"></rect><text class="context-label" dy="0.35em">17</text></g><g class="context-node-group" transform="translate(99.4000015258789, 410)"><rect class="context-node " x="-45" y="-22.5" width="90" height="45" rx="8"></rect><text class="context-label" dy="0.35em">18</text></g></svg>